<svg xmlns="http://www.w3.org/2000/svg" viewBox="0 0 1241.16 500"><defs><style>.cls-1{fill:#fff;}.cls-2{fill:#a2e0d7;}.cls-3{fill:#f49f9f;}.cls-4{fill:#393449;}.cls-5{fill:#8585e5;}.cls-6{fill:#61e5db;}.cls-7{fill:#fbb;}.cls-8{fill:#5ae2d1;}.cls-12,.cls-9{fill:#2dc1ac;}.cls-10{fill:#fdffff;}.cls-11{fill:#373354;}.cls-12{font-size:183.3px;font-family:Mistral;}</style></defs><g id="Layer_2" data-name="Layer 2"><g id="OBJECTS"><rect class="cls-1" width="1241.16" height="500"/><path class="cls-2" d="M447.34,250a196.65,196.65,0,0,1-17.45,81.26c-.38.84-.77,1.68-1.16,2.51s-.85,1.8-1.29,2.69a198.13,198.13,0,0,1-68.95,78.4h0l-1.39.91-1.44.92a197.49,197.49,0,0,1-211.33,0l-1.43-.91-1.39-.92q-6.57-4.32-12.76-9.15l-.94-.74a198.11,198.11,0,0,1-44.7-49.62q-1.41-2.22-2.75-4.48-4.2-7-7.8-14.41c-.44-.89-.87-1.79-1.29-2.69s-.78-1.67-1.16-2.51A196.65,196.65,0,0,1,52.66,250c0-103.77,80.08-188.82,181.82-196.73l1.25-.1,1.25-.08c4.3-.29,8.65-.43,13-.43q7.13,0,14.13.5l1.25.1c.42,0,.84.06,1.25.1C367.84,61.79,447.34,146.61,447.34,250Z"/><path class="cls-3" d="M415.14,272.14a39.41,39.41,0,0,0,4.44-17.71c.74-34.66-24.46-56.34-24.46-56.34s-21.32-76.92-70.43-83c-24-3-41.54,37.38-49.9,81.35a318.54,318.54,0,0,0-4.46,32.51c-2.95,34.79.48,65.59,11.74,71.84,0,0-21.13,66.53,37.43,100.08,0,0,54.3,27.42,81.18,18.9S440.35,310.13,415.14,272.14Z"/><path class="cls-4" d="M388.46,422.65c-28.19,0-67.6-19.72-69.53-20.69-30.77-17.63-39.46-44.32-41.35-63.62a105.23,105.23,0,0,1,3-37c-12.3-8.31-14.05-42.65-11.52-72.51a319.91,319.91,0,0,1,4.48-32.64c8-41.91,25.63-85.55,51.28-82.36,20.49,2.55,39.35,17.91,54.56,44.43a195.61,195.61,0,0,1,16.82,39.15c2.82,2.59,25.31,24.23,24.61,57.06a41,41,0,0,1-4.25,17.61c17.46,27.23,16.63,86.76,4.11,122.29-5.28,15-12.07,24.17-19.63,26.58A42.44,42.44,0,0,1,388.46,422.65Zm-66.3-306.49c-22.68,0-38.65,41.05-46.14,80.49A314.85,314.85,0,0,0,271.57,229c-3.17,37.41,1.19,65.14,11.1,70.64a1.24,1.24,0,0,1,.59,1.47,103.27,103.27,0,0,0-3.18,37.05c2.68,27.17,16.15,47.88,40,61.57.48.24,54.1,27.06,80.18,18.79,6.69-2.12,13.1-11,18-25,12.42-35.24,13.25-94.35-4.23-120.69a1.25,1.25,0,0,1-.07-1.28,38.32,38.32,0,0,0,4.3-17.15c.72-33.64-23.78-55.16-24-55.37a1.31,1.31,0,0,1-.39-.61c-.21-.76-21.66-76.19-69.38-82.13A21.07,21.07,0,0,0,322.16,116.16Z"/><path class="cls-5" d="M379,238.2c.54,1.73-1.92,2.76-2.69,1.34a2.53,2.53,0,0,1-.16-.33,25.14,25.14,0,0,0-5.29-8.91,25.53,25.53,0,0,0-3.68-3.28,10.35,10.35,0,0,0-.47,10.81,1.53,1.53,0,0,1-.35,2.09,1.51,1.51,0,0,1-2.09-.36,13.49,13.49,0,0,1,.37-14.17c-.35-.19-.69-.4-1-.58A32.52,32.52,0,0,0,353.23,222c-5.22-.72-10.82-1.24-15.47-3.78.91,4.86,1.84,9.72,3,14.52q.36,1.49.75,3a18.06,18.06,0,0,0,13.25,3.82c1.92-.22,2.17,2.77.26,3a21,21,0,0,1-12.21-2.36A49.84,49.84,0,0,0,348,251.52a2.1,2.1,0,0,1,.15.3c.35.4.69.81,1.06,1.21,1.31,1.39-.61,3.7-1.93,2.3A46.69,46.69,0,0,1,340,245.21a44.38,44.38,0,0,1-3.89-10.3c-.45-1.87-.8-3.75-1.14-5.63a28.22,28.22,0,0,1-6.66,10.15,1.54,1.54,0,0,1-2.12.18,1.51,1.51,0,0,1-.18-2.11,25.81,25.81,0,0,0,7.62-15.06c-1.26-5.3-3.73-11.14-8.45-14l-.3-.18c-.28-.16-.58-.3-.88-.44l-.25-.12a12.21,12.21,0,0,0-2.59-.78,1.35,1.35,0,0,1-.93-.59,23.61,23.61,0,0,0-8.56-.94,23.88,23.88,0,0,0-15.73,7.74,16.06,16.06,0,0,0-3.9,7.06c-.84,3.78.19,7.72,1.46,11.38,1.95,5.58,4.49,10.94,6.53,16.49,2.8,4.94,8.18,7.89,12.94,10.76,5.38,3.25,10.86,7.1,13,13.29.64,1.83-2.17,2.87-2.81,1.05a17.9,17.9,0,0,0-6.32-8.16,16.9,16.9,0,0,0-.56,12.08c.61,1.83-2.2,2.87-2.81,1a20,20,0,0,1,.88-14.9c-1.66-1.1-3.38-2.1-5-3.1a50.84,50.84,0,0,1-7.08-4.92,44.58,44.58,0,0,1,.86,4.41,41.14,41.14,0,0,1,.85,7.51c0,1.94.34,5-1.18,6.48a2.26,2.26,0,0,1-2,.68,1.65,1.65,0,0,1-1.95-1.38,2.94,2.94,0,0,1-.42-1.31,25,25,0,0,1,.42-3.85c0-.49.06-1,.08-1.48a50,50,0,0,0-2.52-13.22c-2,3.28-5.13,5.73-7.79,8.62l0,0a14,14,0,0,1,4.12,10.7,1.52,1.52,0,0,1-1.75,1.21,1.55,1.55,0,0,1-1.2-1.75c0,.22,0-.11,0-.15s0-.27,0-.4,0-.48,0-.71a11.85,11.85,0,0,0-.2-1.33.91.91,0,0,1,0-.12s0,0,0,0-.05-.21-.08-.31l-.21-.68c-.15-.43-.32-.84-.51-1.25l-.16-.34-.05-.09c-.12-.21-.24-.42-.37-.62a11.68,11.68,0,0,0-.83-1.16l-.2-.24-.14-.16-.2-.2A21.08,21.08,0,0,0,283,275.9c0,1.92-3,2.19-3,.26A24.39,24.39,0,0,1,285,261.39l0,0a1.55,1.55,0,0,1,.28-.54,1.63,1.63,0,0,1,.47-.37c3.17-3.62,7.79-6.5,9.21-11.26a50.05,50.05,0,0,0-7-11.61,38.21,38.21,0,0,0-7-4.92c-2.22-1.26-4.5-2.4-6.76-3.59-.81-.5-1.64-1-2.5-1.6q-.58-.37-1.17-.78l-1.19-.81c-6.7-4.63-14.07-11-18.8-19.81-10.52,19.72-19,20.69-19.81,20.73h-.06l-1,.09a318.54,318.54,0,0,0-4.46-32.51c.29,0,.57-.11.85-.18,10.07-2.44,9.67-13,9.67-13V174h0V53.17l1.25-.08c4.3-.29,8.65-.43,13-.43q7.13,0,14.13.5l1.25.1v128s-.34,9.2,7.84,12.39c.28,0,.57,0,.85-.06.44,0,.88-.09,1.31-.16s.9-.17,1.34-.29a15.76,15.76,0,0,0,6.23-3.2c3.09-2.6,4.67-6.36,5.95-10.09,1.35-3.95,2.47-8,4.85-11.51a15.7,15.7,0,0,1,2-2.41c.07-.09.13-.18.2-.26a1.45,1.45,0,0,1,.49-.39,13,13,0,0,1,6.14-3c1.9-.36,2.15,2.64.27,3a9.46,9.46,0,0,0-4.82,2.62,24.93,24.93,0,0,0-4.55,8.28c-.36,1.14-.64,2.3-.89,3.46a14.68,14.68,0,0,1,5.32-1.37,1.53,1.53,0,0,1,1.62,1.37,1.5,1.5,0,0,1-1.36,1.62,10.87,10.87,0,0,0-2,.27l-.26.06-.48.14c-.3.1-.6.2-.89.32s-.58.24-.87.37l-.32.16-.33.19c-.43.26-.84.55-1.24.85-.16.84-.33,1.68-.52,2.51a26.37,26.37,0,0,1-2.78,7.32c8.61-.57,19.69-1,26.81-.19a47.84,47.84,0,0,1,15.49,4.74,30.75,30.75,0,0,1,7.33,4.36c.38.31.74.64,1.1,1a21.14,21.14,0,0,1,3.45,3.76,49.88,49.88,0,0,0,5.41,6,21.06,21.06,0,0,0,5.62,3.39,44.81,44.81,0,0,0,8.78-2c1.33-.38,2.69-.74,4.07-1a11,11,0,0,1,8.92-7.64,1.5,1.5,0,0,1,.26,3,3.36,3.36,0,0,0-.62.11l-.06,0-.32.09a8.92,8.92,0,0,0-1.12.43l-.3.15h0l0,0-.52.31a9.74,9.74,0,0,0-1,.72l-.09.08-.16.14c-.16.16-.31.31-.45.48a9.78,9.78,0,0,0-.75,1l-.06.09-.14.24a3.41,3.41,0,0,0-.17.33,14.66,14.66,0,0,1,8.49,1.61c1.68.94.41,3.66-1.28,2.72-5.19-2.9-11.12-.71-16.38.81l-1.7.46c.67.24,1.35.49,2,.76A30.08,30.08,0,0,1,379,238.2Z"/><path class="cls-4" d="M363,218.7c4.66-1.38,9.44-2.69,13.59-.38a2.52,2.52,0,0,0,2.57,0,2.93,2.93,0,0,0,1.36-2.53,2.68,2.68,0,0,0-1.43-2.37,14.77,14.77,0,0,0-6.55-1.81.46.46,0,0,0,.07-.07h0a7.36,7.36,0,0,1,.84-.63,3.79,3.79,0,0,1,.34-.2l.12-.08h0l.22-.1a7.15,7.15,0,0,1,1-.37l.27-.08.14,0,.22,0,.18,0a2.75,2.75,0,0,0,2.42-3,2.89,2.89,0,0,0-1.12-1.92,2.51,2.51,0,0,0-1.92-.51,12.29,12.29,0,0,0-9.69,7.79c-1.05.23-2.17.53-3.47.9l-.91.27a40.47,40.47,0,0,1-7.31,1.69,19.38,19.38,0,0,1-5-3.06,40.06,40.06,0,0,1-4.53-5l-.68-.83a21.94,21.94,0,0,0-3.62-4c-.38-.35-.76-.7-1.17-1a31.6,31.6,0,0,0-7.56-4.51,49.3,49.3,0,0,0-15.89-4.87c-5.47-.63-13.82-.61-24.84.05a30,30,0,0,0,1.88-5.65c.16-.69.3-1.38.44-2.08.26-.18.5-.34.73-.48l.29-.16.16-.08.11-.06c.26-.12.52-.24.79-.34s.53-.2.8-.28l.5-.15.17,0a8.75,8.75,0,0,1,1.73-.23,2.76,2.76,0,0,0,2.53-3,2.78,2.78,0,0,0-2.94-2.44,15,15,0,0,0-3.48.61c.1-.38.21-.74.32-1.08a23.71,23.71,0,0,1,4.28-7.81,8.22,8.22,0,0,1,4.13-2.24,2.81,2.81,0,0,0,2.14-1.84,2.92,2.92,0,0,0-.48-2.82,2.47,2.47,0,0,0-2.39-.79,14.28,14.28,0,0,0-6.63,3.22,2.87,2.87,0,0,0-.73.62l-.15.19,0,0a16.9,16.9,0,0,0-2.12,2.54,38.92,38.92,0,0,0-4.39,10c-.21.61-.41,1.22-.61,1.82-1.22,3.55-2.73,7.15-5.57,9.54a14.42,14.42,0,0,1-5.15,2.78,15.34,15.34,0,0,1-2.67.55c-.29,0-.59.06-.89.08-7-2.9-6.82-10.75-6.81-11.13V53.36c-.41,0-.83-.08-1.25-.1l-1.25-.1v128c0,.1-.27,10.13,8.64,13.61a1.22,1.22,0,0,0,.5.08l.55,0c.44,0,.87-.07,1.3-.13s.89-.15,1.33-.25a16.91,16.91,0,0,0,7.3-3.59c3.32-2.79,5-6.76,6.33-10.65.21-.61.42-1.23.62-1.85a36.61,36.61,0,0,1,4.08-9.35,15.14,15.14,0,0,1,1.87-2.23l.09-.1.2-.25.08-.08a1,1,0,0,0,.27-.17,12.11,12.11,0,0,1,5.59-2.78.51.51,0,0,1,0,.38.28.28,0,0,1-.24.19,10.71,10.71,0,0,0-5.44,3,.52.52,0,0,0-.1.11,26.1,26.1,0,0,0-4.78,8.69,35.59,35.59,0,0,0-.92,3.59,1.24,1.24,0,0,0,1.76,1.38,13.33,13.33,0,0,1,4.85-1.25.3.3,0,0,1,.31.28c0,.07-.12.21-.2.21a12.69,12.69,0,0,0-2.2.31l-.26.07a4.61,4.61,0,0,0-.53.15c-.33.1-.66.22-1,.34l-.94.41-.28.15-.11,0-.37.21a13.31,13.31,0,0,0-1.36.93,1.19,1.19,0,0,0-.46.75c-.16.83-.33,1.65-.52,2.47a24.89,24.89,0,0,1-2.64,7,1.25,1.25,0,0,0,0,1.29,1.27,1.27,0,0,0,1.15.59c11.8-.78,21-.85,26.59-.2a46.86,46.86,0,0,1,15.14,4.65,29.31,29.31,0,0,1,7,4.18c.36.3.7.61,1.07,1a20.09,20.09,0,0,1,3.31,3.62l.73.89a43.21,43.21,0,0,0,4.81,5.27,22.14,22.14,0,0,0,6,3.6,1.36,1.36,0,0,0,.6.1,40.52,40.52,0,0,0,8.11-1.81l.92-.27c1.52-.44,2.78-.76,4-1a1.27,1.27,0,0,0,.94-.85,9.75,9.75,0,0,1,8-6.74.48.48,0,0,1,.16.26c0,.07-.14.2-.3.23h-.12a2.87,2.87,0,0,0-.71.14l-.37.11a11.42,11.42,0,0,0-1.27.48l-.35.17-.12.07-.13.08-.42.25a10.83,10.83,0,0,0-1.1.82l.79.93-.87-.86a1.3,1.3,0,0,0-.38.54,1.3,1.3,0,0,1,.22-.39l-.07.06c-.18.17-.35.35-.51.53a10,10,0,0,0-.85,1.09l-.26.41-.2.38a1.26,1.26,0,0,0,.08,1.26,1.21,1.21,0,0,0,1.13.55,13.5,13.5,0,0,1,7.8,1.47.21.21,0,0,1,.14.23c0,.18-.1.31-.21.29-5.19-2.88-10.88-1.2-15.91.29l-1.43.41c-.54.16-1.1.31-1.66.45a1.27,1.27,0,0,0-.94,1.15,1.24,1.24,0,0,0,.82,1.24c.66.24,1.33.49,2,.75a28.77,28.77,0,0,1,17.06,18.15.21.21,0,0,1-.05.26.36.36,0,0,1-.34.11l-.07-.14A26.49,26.49,0,0,0,367.88,226a1.25,1.25,0,0,0-.95-.22,1.29,1.29,0,0,0-.83.53,11.58,11.58,0,0,0-.51,12.14c.05.07.17.32,0,.44a.6.6,0,0,1-.29,0,12.26,12.26,0,0,1,.34-12.85,1.21,1.21,0,0,0,.17-1,1.25,1.25,0,0,0-.6-.8l-.32-.18c-.26-.15-.51-.3-.77-.43a33.89,33.89,0,0,0-10.72-2.95l-1.59-.21c-4.66-.62-9.47-1.26-13.45-3.43a1.25,1.25,0,0,0-1.82,1.33c.93,5,1.85,9.83,3,14.58q.35,1.5.75,3a1.27,1.27,0,0,0,.43.66,19.46,19.46,0,0,0,14.17,4.08c.07,0,.11,0,.11,0a.38.38,0,0,1,.06.34c0,.11-.06.14-.19.16A20,20,0,0,1,343.35,239a1.24,1.24,0,0,0-1.77,1.49A51.11,51.11,0,0,0,347,252.27a1,1,0,0,0,.22.36l.3.35c.26.31.52.61.79.9a.32.32,0,0,1,.09.32c-.05.18-.18.31-.2.27a45,45,0,0,1-7.06-9.85,43.33,43.33,0,0,1-3.79-10c-.44-1.8-.78-3.65-1.12-5.55a1.25,1.25,0,0,0-1.11-1,1.27,1.27,0,0,0-1.28.8,27,27,0,0,1-6.37,9.7c-.08.08-.29.26-.44.13a.74.74,0,0,1-.12-.26,27.26,27.26,0,0,0,8-15.8,1.36,1.36,0,0,0,0-.45c-1.7-7.13-4.83-12.23-9.06-14.77l-.09-.06-.2-.12-.94-.47-.32-.15a13.39,13.39,0,0,0-2.85-.86c-.1,0-.12,0-.12-.05a1.25,1.25,0,0,0-.69-.51,24.73,24.73,0,0,0-9-1A25.11,25.11,0,0,0,295,212.32a17.2,17.2,0,0,0-4.19,7.62c-.92,4.16.24,8.43,1.5,12.07,1.07,3.05,2.33,6.08,3.54,9,1,2.46,2.07,5,3,7.51a1.54,1.54,0,0,0,.08.19c2.75,4.85,7.82,7.88,12.29,10.55l1.1.66c4.94,3,10.4,6.67,12.47,12.63,0,.08.08.22-.19.31s-.23,0-.26-.08a18.8,18.8,0,0,0-6.73-8.73,1.28,1.28,0,0,0-1.08-.23,1.24,1.24,0,0,0-.84.72,18.11,18.11,0,0,0-.6,13c0,.13,0,.17-.05.24a.41.41,0,0,1-.34.1.32.32,0,0,1,0-.09,18.82,18.82,0,0,1,.83-14,1.25,1.25,0,0,0-.44-1.58c-1.39-.92-2.82-1.78-4.2-2.6l-.88-.53a50,50,0,0,1-6.91-4.8,1.23,1.23,0,0,0-.81-.3,1.31,1.31,0,0,0-.66.18,1.26,1.26,0,0,0-.55,1.37c.35,1.42.63,2.86.85,4.35a41.1,41.1,0,0,1,.82,7.29c0,.24,0,.49,0,.75,0,1.64.12,3.87-.83,4.82a1,1,0,0,1-.89.33,1.24,1.24,0,0,0-.43,0,.51.51,0,0,1-.35-.09.31.31,0,0,1-.12-.2,1.35,1.35,0,0,0-.17-.5,1.8,1.8,0,0,1-.25-.76,9.8,9.8,0,0,1,.21-2.14c.09-.51.17-1,.22-1.51s.06-1,.08-1.55a.31.31,0,0,0,0-.1,50.28,50.28,0,0,0-2.58-13.56,1.23,1.23,0,0,0-1-.84,1.26,1.26,0,0,0-1.21.59,30.87,30.87,0,0,1-5,5.73c-.88.86-1.79,1.75-2.64,2.68a1.22,1.22,0,0,0-.37.89,1.27,1.27,0,0,0,.38.88,12.74,12.74,0,0,1,3.76,9.66.51.51,0,0,1-.29.13c-.19,0-.19-.33-.19-.46v0h0s0-.06,0-.09v-.06c0-.15,0-.3,0-.45s0-.52,0-.78a14.05,14.05,0,0,0-.23-1.56s0,0,0-.06a.74.74,0,0,0,0-.14l-.07-.26c-.07-.25-.15-.5-.23-.75a14.59,14.59,0,0,0-.56-1.37c0-.12-.12-.25-.17-.37l-.08-.14-.4-.68c-.29-.44-.59-.87-.91-1.27l-.28-.33-.12-.14-.23-.24a1.34,1.34,0,0,0-1-.36,1.27,1.27,0,0,0-.92.54,22.22,22.22,0,0,0-4,12.52.27.27,0,0,1-.15.27c-.15.09-.32.08-.34,0a23,23,0,0,1,4.7-14,1.86,1.86,0,0,0,.33-.58,1.14,1.14,0,0,0,.39-.3c.92-1,1.95-2,3.05-3,2.62-2.47,5.33-5,6.41-8.67a1.19,1.19,0,0,0-.05-.85,51,51,0,0,0-7.17-11.91l-.13-.14a40.13,40.13,0,0,0-7.2-5.08c-1.61-.91-3.27-1.77-4.87-2.6l-1.85-1c-1-.61-2-1.26-3-1.95-.39-.25-.78-.51-1.17-.79s-.79-.53-1.19-.82c-6.5-4.57-13.37-10.64-17.83-19a1.25,1.25,0,0,0-2.2,0c-9.73,18.22-17.56,19.91-18.64,20.06,0-.27-.05-.55-.08-.82-.89-9.79-2.25-19.66-4.07-29.38,10.62-2.78,10.33-14,10.32-14.1V174a.81.81,0,0,0,0-.16V53.09l-1.25.08-1.25.1V174c0,.05,0,.1,0,.16v7.11c0,.4.21,9.5-8.67,11.7-.27.07-.55.13-.83.18a1.34,1.34,0,0,0-.38.14,1.18,1.18,0,0,0-.42.38,1.26,1.26,0,0,0-.2.94A314.85,314.85,0,0,1,228.43,227a1.19,1.19,0,0,0,.44.85,1.21,1.21,0,0,0,.73.29.54.54,0,0,0,.18,0l1-.09h.09c1.3-.09,9.6-1.41,19.72-19.41,5,8.22,12.05,14.17,18.65,18.68l1.18.8,1.18.77c.69.45,1.38.88,2.05,1.3l1.94,1c1.58.82,3.22,1.67,4.79,2.56a36.65,36.65,0,0,1,6.67,4.69,47.92,47.92,0,0,1,6.58,10.82c-1,2.79-3.22,4.9-5.59,7.14-1,1-2.12,2-3.08,3.07a3,3,0,0,0-.63.55,2.61,2.61,0,0,0-.43.74,25.52,25.52,0,0,0-5.12,15.4,2.44,2.44,0,0,0,1.21,2.21,2.91,2.91,0,0,0,2.87,0,2.8,2.8,0,0,0,1.41-2.42,19.49,19.49,0,0,1,2.64-9.69l.19.29c.11.18.22.37.35.61l.15.3c.17.37.32.75.45,1.12.07.21.14.41.19.61l.08.29s0,0,0,.05v0a10.81,10.81,0,0,1,.17,1.2c0,.21,0,.42,0,.64s0,.23,0,.41v.1a2.78,2.78,0,0,0,2.23,3,2.93,2.93,0,0,0,2.28-.6,2.43,2.43,0,0,0,.95-1.78,15.33,15.33,0,0,0-3.65-10.76c.59-.6,1.2-1.19,1.79-1.77a49.8,49.8,0,0,0,3.85-4.08,48.65,48.65,0,0,1,1.72,10.44c0,.46,0,.91-.07,1.36s-.12.87-.19,1.32a11,11,0,0,0-.24,2.72,4.27,4.27,0,0,0,.47,1.66,2.77,2.77,0,0,0,1.08,1.64,3,3,0,0,0,2.09.57,3.46,3.46,0,0,0,2.82-1.06c1.72-1.71,1.63-4.57,1.57-6.67,0-.25,0-.49,0-.71a42.79,42.79,0,0,0-.86-7.67l-.18-1.16c1.54,1.11,3.1,2.08,4.52,2.93l.87.52c1.07.64,2.16,1.29,3.23,2a21.38,21.38,0,0,0-.5,14.83,2.59,2.59,0,0,0,2.48,1.81,3,3,0,0,0,.92-.15,2.71,2.71,0,0,0,1.78-3.5,15.55,15.55,0,0,1-.06-9.59A15.31,15.31,0,0,1,322,273.6a2.65,2.65,0,0,0,3.44,1.63,2.7,2.7,0,0,0,1.73-3.5c-2.24-6.43-7.83-10.5-13.54-14l-1.11-.66c-4.38-2.62-8.91-5.33-11.34-9.56-.94-2.54-2-5.06-3-7.5-1.2-2.9-2.44-5.89-3.49-8.87-1.14-3.3-2.21-7.16-1.42-10.7a14.72,14.72,0,0,1,3.61-6.5,22.63,22.63,0,0,1,14.9-7.33,22.3,22.3,0,0,1,7.75.8,2.65,2.65,0,0,0,1.42.72,10.71,10.71,0,0,1,2.27.68l.27.13a8.52,8.52,0,0,1,.8.4l.26.15c4.48,2.69,6.73,8.48,7.82,13a24.63,24.63,0,0,1-7.22,14.1,2.47,2.47,0,0,0-.73,1.9,2.86,2.86,0,0,0,1,2.07,2.76,2.76,0,0,0,3.79-.24,29.13,29.13,0,0,0,5.29-7q.19.93.42,1.86a45.44,45.44,0,0,0,4,10.59,47.24,47.24,0,0,0,7.45,10.39,2.44,2.44,0,0,0,2.37.77,2.9,2.9,0,0,0,2-2,2.81,2.81,0,0,0-.65-2.78c-.25-.26-.48-.53-.71-.81l-.19-.22-.16-.29a45.1,45.1,0,0,1-4.13-8.38,22.28,22.28,0,0,0,10.21,1.27,2.61,2.61,0,0,0,2.18-1.59,2.92,2.92,0,0,0-.31-2.87,2.57,2.57,0,0,0-2.41-1,17,17,0,0,1-12-3.31q-.33-1.26-.63-2.52c-.92-3.94-1.72-8-2.49-12.07,3.8,1.55,8,2.1,12,2.64l1.58.21a32,32,0,0,1,9.81,2.64,14.76,14.76,0,0,0,.28,14.33,2.52,2.52,0,0,0,1.67,1.18,2.92,2.92,0,0,0,2.22-.43,2.77,2.77,0,0,0,.71-3.75,9.12,9.12,0,0,1-.24-8.3,23.4,23.4,0,0,1,2.39,2.26,23.65,23.65,0,0,1,5,8.46,2.32,2.32,0,0,0,.24.52,2.59,2.59,0,0,0,3.36,1.1,2.76,2.76,0,0,0,1.62-3.4A31.15,31.15,0,0,0,363,218.7Z"/><rect class="cls-6" x="231.23" y="144.7" width="38.64" height="21.68"/><path class="cls-4" d="M269.87,167.63H231.23a1.25,1.25,0,0,1-1.25-1.25V144.7a1.25,1.25,0,0,1,1.25-1.25h38.64a1.25,1.25,0,0,1,1.25,1.25v21.68A1.25,1.25,0,0,1,269.87,167.63Zm-37.39-2.5h36.14V146H232.48Z"/><rect class="cls-6" x="231.23" y="106.1" width="38.64" height="21.68"/><path class="cls-4" d="M269.87,129H231.23a1.25,1.25,0,0,1-1.25-1.25V106.1a1.25,1.25,0,0,1,1.25-1.25h38.64a1.25,1.25,0,0,1,1.25,1.25v21.68A1.25,1.25,0,0,1,269.87,129Zm-37.39-2.5h36.14V107.35H232.48Z"/><rect class="cls-6" x="231.23" y="66.15" width="38.64" height="21.68"/><path class="cls-4" d="M269.87,89.08H231.23A1.25,1.25,0,0,1,230,87.83V66.15a1.25,1.25,0,0,1,1.25-1.25h38.64a1.25,1.25,0,0,1,1.25,1.25V87.83A1.25,1.25,0,0,1,269.87,89.08Zm-37.39-2.5h36.14V67.4H232.48Z"/><path class="cls-7" d="M84.86,272.14a39.41,39.41,0,0,1-4.44-17.71c-.74-34.66,24.46-56.34,24.46-56.34s21.32-76.92,70.43-83c24-3,41.54,37.38,49.9,81.35a318.54,318.54,0,0,1,4.46,32.51c3,34.79-.48,65.59-11.74,71.84,0,0,21.13,66.53-37.43,100.08,0,0-54.3,27.42-81.18,18.9S59.65,310.13,84.86,272.14Z"/><path class="cls-4" d="M111.54,422.65a42.11,42.11,0,0,1-12.6-1.71c-7.56-2.41-14.35-11.6-19.63-26.58C66.79,358.83,66,299.3,83.42,272.07a41,41,0,0,1-4.25-17.61C78.47,221.63,101,200,103.78,197.4a195.61,195.61,0,0,1,16.82-39.15c15.21-26.52,34.07-41.88,54.56-44.43,25.66-3.21,43.31,40.45,51.28,82.36a319.91,319.91,0,0,1,4.48,32.64c2.53,29.86.78,64.2-11.52,72.51a105.23,105.23,0,0,1,3,37c-1.89,19.3-10.58,46-41.3,63.59C179.15,402.93,139.73,422.64,111.54,422.65Zm66.3-306.49a19.06,19.06,0,0,0-2.37.14c-47.72,5.94-69.17,81.37-69.38,82.13a1.24,1.24,0,0,1-.39.61c-.25.21-24.75,21.73-24,55.37A38.32,38.32,0,0,0,86,271.56a1.25,1.25,0,0,1-.07,1.28c-17.48,26.34-16.65,85.45-4.23,120.69,4.93,14,11.34,22.9,18,25a38.88,38.88,0,0,0,11.72,1.58c27.73,0,68.05-20.17,68.52-20.4,23.83-13.66,37.3-34.37,40-61.54a103.27,103.27,0,0,0-3.18-37.05,1.26,1.26,0,0,1,.59-1.47c9.91-5.5,14.27-33.23,11.1-70.64A314.85,314.85,0,0,0,224,196.65C216.49,157.21,200.52,116.16,177.84,116.16Z"/><path class="cls-4" d="M127.73,297l-.22,0c-37.63-6.66-43.6-23.74-43.84-24.47a1.25,1.25,0,0,1,2.38-.78c.08.23,6,16.44,41.9,22.79a1.25,1.25,0,0,1-.22,2.48Z"/><path class="cls-4" d="M188.9,309.32c-1.8,0-3.65-.08-5.55-.26a1.26,1.26,0,0,1-1.13-1.36,1.25,1.25,0,0,1,1.36-1.13,61.5,61.5,0,0,0,33.72-6.88,1.25,1.25,0,1,1,1.27,2.15A62.82,62.82,0,0,1,188.9,309.32Z"/><path class="cls-4" d="M117.25,195.82a1.33,1.33,0,0,1-.28,0,1.26,1.26,0,0,1-.94-1.5,135,135,0,0,1,16.66-40.61,1.25,1.25,0,1,1,2.13,1.31,132.41,132.41,0,0,0-16.35,39.86A1.25,1.25,0,0,1,117.25,195.82Z"/><path class="cls-4" d="M137.53,149.89a1.26,1.26,0,0,1-.71-.22,1.24,1.24,0,0,1-.31-1.74,66.23,66.23,0,0,1,13.25-14.11,1.25,1.25,0,1,1,1.56,2,63.94,63.94,0,0,0-12.76,13.57A1.25,1.25,0,0,1,137.53,149.89Z"/><path class="cls-4" d="M218.4,279l-.25,0a1.25,1.25,0,0,1-1-1.47,152.34,152.34,0,0,0,0-60.13,1.25,1.25,0,1,1,2.45-.49,154.87,154.87,0,0,1,0,61.12A1.25,1.25,0,0,1,218.4,279Z"/><path class="cls-4" d="M211.67,294.3a1.32,1.32,0,0,1-.54-.12,1.25,1.25,0,0,1-.58-1.67c1.45-3,2.78-6.06,4-9.15a1.25,1.25,0,1,1,2.33.9c-1.22,3.15-2.58,6.29-4.06,9.34A1.26,1.26,0,0,1,211.67,294.3Z"/><path class="cls-4" d="M105.89,413.32a12.4,12.4,0,0,1-7-2.32,23.13,23.13,0,0,1-6.63-8.07c-4.34-7.87-6.59-16.57-8.06-23.26-3.56-16.26-4.71-31.73-3.41-46,.92-10.09,3.11-20.11,5.23-29.81a1.25,1.25,0,0,1,2.44.54c-2.1,9.62-4.28,19.56-5.18,29.5-1.28,14-.15,29.19,3.37,45.2,1.43,6.53,3.61,15,7.8,22.6,1.92,3.49,3.73,5.72,5.87,7.22a8.88,8.88,0,0,0,8.25,1.37,1.25,1.25,0,0,1,.94,2.32A9.63,9.63,0,0,1,105.89,413.32Z"/><path class="cls-4" d="M116.47,410.46a1.25,1.25,0,0,1-.32-2.46l11.13-3a1.25,1.25,0,0,1,.65,2.42l-11.13,3A1.86,1.86,0,0,1,116.47,410.46Z"/><path class="cls-4" d="M240.92,186.23a1.25,1.25,0,0,1-1.25-1.25V169.75a1.25,1.25,0,0,1,2.5,0V185A1.25,1.25,0,0,1,240.92,186.23Z"/><path class="cls-4" d="M240.75,142.08a1.24,1.24,0,0,1-1.24-1.22l-.19-10.57a1.25,1.25,0,0,1,1.23-1.27h0a1.25,1.25,0,0,1,1.25,1.23l.19,10.56a1.25,1.25,0,0,1-1.23,1.27Z"/><path class="cls-4" d="M241.15,103.72a1.25,1.25,0,0,1-1.25-1.2l-.39-10a1.25,1.25,0,0,1,1.2-1.3,1.27,1.27,0,0,1,1.3,1.2l.39,10a1.25,1.25,0,0,1-1.2,1.3Z"/><path class="cls-7" d="M418.33,393.54c-4.93,14-11.34,22.89-18,25-26.08,8.27-79.7-18.56-80.18-18.8a88.84,88.84,0,0,1-13.37-9.31c18.93,2.92,32-15.93,43.85-67.42s63.49-50.19,63.49-50.19C431.58,299.19,430.75,358.29,418.33,393.54Z"/><path class="cls-3" d="M220.38,326.89a67.33,67.33,0,0,1-37-17.83c1.9.18,3.76.27,5.56.27a63.87,63.87,0,0,0,28.25-6.72A105,105,0,0,1,220.38,326.89Z"/><path class="cls-3" d="M127.51,297s-23.11,9.05-52.11,4.27c2-10.26,5.06-19.42,9.32-26.53C87.59,279.71,97.44,291.69,127.51,297Z"/><path class="cls-4" d="M291.56,351.63a1.23,1.23,0,0,0,1.11-1.58,76.11,76.11,0,0,1-1.87-35.79,1.25,1.25,0,1,0-2.45-.47,78.55,78.55,0,0,0,1.93,37,1.23,1.23,0,0,0,1.25.88Z"/><path class="cls-6" d="M388.32,435.23a7.19,7.19,0,0,1-3.61-13.4v-1a16.55,16.55,0,0,1-5.9-2.69L377,420a5.35,5.35,0,0,1-9,5,5.37,5.37,0,0,1,0-7.57,5.3,5.3,0,0,1,3.77-1.57A5.59,5.59,0,0,1,373,416l1.87-1.87a16.45,16.45,0,0,1-2.59-6h-.88a7.18,7.18,0,1,1-.12-7.21h1a16.59,16.59,0,0,1,2.63-5.88l-1.78-1.79a5.39,5.39,0,0,1-1.38.18,5.29,5.29,0,0,1-3.79-1.57,5.36,5.36,0,0,1,0-7.56,5.35,5.35,0,0,1,7.56,0,5.39,5.39,0,0,1,1.47,4.83l1.91,1.93a16.6,16.6,0,0,1,5.78-2.61v-1a7.18,7.18,0,1,1,7.22,0v.91A16.56,16.56,0,0,1,398,391l1.66-1.67a5.35,5.35,0,1,1,9,2.56,5.29,5.29,0,0,1-3.79,1.57,5.41,5.41,0,0,1-1.21-.13L402,395a16.4,16.4,0,0,1,2.73,6.07h1a7.18,7.18,0,1,1,0,7.21h-.95a16.46,16.46,0,0,1-2.72,6.1l1.63,1.65a4.88,4.88,0,0,1,1.21-.14,5.35,5.35,0,1,1-5.22,4.11L398,418.29a16.43,16.43,0,0,1-6.08,2.63v.91a7.19,7.19,0,0,1-3.61,13.4Z"/><path class="cls-4" d="M388.32,375.32a5.94,5.94,0,0,1,2.36,11.38v2.72a15.26,15.26,0,0,1,7.43,3.22l3-3a4.1,4.1,0,1,1,3.79,2.53,4.2,4.2,0,0,1-1.56-.3l-2.95,2.94a15.32,15.32,0,0,1,3.36,7.43h2.77a5.93,5.93,0,1,1,0,4.71h-2.75a15.34,15.34,0,0,1-3.35,7.45l2.94,3a4,4,0,0,1,1.56-.31,4.07,4.07,0,0,1,2.89,1.2,4.12,4.12,0,0,1,0,5.81,4.12,4.12,0,0,1-5.79,0,4.11,4.11,0,0,1-.9-4.49l-2.94-3a15.21,15.21,0,0,1-7.45,3.23v2.73a5.93,5.93,0,1,1-4.72,0v-2.79a15.26,15.26,0,0,1-7.25-3.33l-3.15,3.14a4.1,4.1,0,1,1-3.8-2.53,4.13,4.13,0,0,1,1.58.32l3.17-3.18a15.27,15.27,0,0,1-3.2-7.32h-2.7a5.93,5.93,0,1,1-.09-4.71h2.82a15.33,15.33,0,0,1,3.25-7.25l-3.1-3.12a4.08,4.08,0,0,1-1.71.37,4.1,4.1,0,1,1,3.84-2.69l3.2,3.21a15.25,15.25,0,0,1,7.14-3.23V386.7a5.94,5.94,0,0,1,2.36-11.38m0-2.5a8.44,8.44,0,0,0-5.45,14.87,17.53,17.53,0,0,0-3.77,1.77l-.76-.76a6.64,6.64,0,0,0-1.9-5.27,6.6,6.6,0,1,0-4.66,11.27,6.33,6.33,0,0,0,1-.07l.58.59a18.37,18.37,0,0,0-1.82,3.92,8.43,8.43,0,1,0,0,11,18.06,18.06,0,0,0,1.75,3.79l-.69.69a7.34,7.34,0,0,0-.81-.05,6.55,6.55,0,0,0-4.65,1.93,6.6,6.6,0,1,0,11.22,3.87l.64-.64a17.68,17.68,0,0,0,3.9,1.86,8.43,8.43,0,1,0,11,.09,17.91,17.91,0,0,0,4-1.8l.47.47a6.61,6.61,0,0,0,6.56,7.42,6.52,6.52,0,0,0,4.66-1.93,6.6,6.6,0,0,0-4.66-11.27,6.79,6.79,0,0,0-.78,0l-.45-.45a18.08,18.08,0,0,0,1.89-4,8.43,8.43,0,1,0,0-11,18,18,0,0,0-1.9-4l.44-.44a7,7,0,0,0,.79,0,6.54,6.54,0,0,0,4.67-1.93,6.63,6.63,0,0,0,0-9.34,6.61,6.61,0,0,0-11.23,5.47l-.49.49a17.76,17.76,0,0,0-3.94-1.8,8.43,8.43,0,0,0-5.56-14.77Z"/><circle class="cls-8" cx="388.52" cy="404.65" r="15.37"/><path class="cls-9" d="M394.25,381.25a5.93,5.93,0,1,1-5.93-5.93A5.94,5.94,0,0,1,394.25,381.25Z"/><path class="cls-9" d="M394.25,428.05A5.93,5.93,0,1,1,386,422.6a5.93,5.93,0,0,1,4.72,0A5.94,5.94,0,0,1,394.25,428.05Z"/><path class="cls-9" d="M371.06,404.65a5.79,5.79,0,0,1-.45,2.25,5.93,5.93,0,1,1-.09-4.72A6,6,0,0,1,371.06,404.65Z"/><path class="cls-9" d="M417.85,404.65a5.93,5.93,0,1,1-11.86,0,5.81,5.81,0,0,1,.49-2.37,5.93,5.93,0,0,1,11.37,2.37Z"/><path class="cls-9" d="M407.77,424.09a4.1,4.1,0,0,1-6.69-4.48,4.24,4.24,0,0,1,.88-1.32,4.06,4.06,0,0,1,1.35-.89,4.1,4.1,0,0,1,4.46,6.69Z"/><path class="cls-9" d="M374.67,424.09a4.1,4.1,0,1,1-1.33-6.68,3.86,3.86,0,0,1,1.33.88,4.18,4.18,0,0,1,.89,1.34A4.08,4.08,0,0,1,374.67,424.09Z"/><path class="cls-9" d="M375.62,389.51a4,4,0,0,1-.95,1.49,4.1,4.1,0,1,1,0-5.8A4.09,4.09,0,0,1,375.62,389.51Z"/><path class="cls-8" d="M406.47,407,393,407l10.36,10.44a4.06,4.06,0,0,0-1.35.89,4.24,4.24,0,0,0-.88,1.32l-10.4-10.47V422.6a5.93,5.93,0,0,0-4.72,0V409.23l-10.4,10.4a4.18,4.18,0,0,0-.89-1.34,3.86,3.86,0,0,0-1.33-.88l10.47-10.48-13.2,0a5.79,5.79,0,0,0,.45-2.25,6,6,0,0,0-.54-2.47l13.29,0-10.32-10.39a4.14,4.14,0,0,0,1.18-.83,4,4,0,0,0,.95-1.49L386,399.92V386.7a6,6,0,0,0,4.72,0v13.37l10.39-10.4a4.09,4.09,0,0,0,2.23,2.22L393,402.24l13.53,0a5.81,5.81,0,0,0-.49,2.37A5.9,5.9,0,0,0,406.47,407Z"/><path class="cls-9" d="M407.77,391a4.09,4.09,0,0,1-4.47.89,4.09,4.09,0,0,1-2.23-2.22,4.11,4.11,0,1,1,6.7,1.33Z"/><path class="cls-9" d="M388,410.84a4.34,4.34,0,1,1-6.05-4,4.29,4.29,0,0,1,3.44,0A4.32,4.32,0,0,1,388,410.84Z"/><path class="cls-9" d="M383.09,401.6a2.93,2.93,0,1,1-4.1-2.69,2.95,2.95,0,0,1,2.33,0A2.94,2.94,0,0,1,383.09,401.6Z"/><path class="cls-9" d="M389.53,403.27a2.3,2.3,0,1,1-3.22-2.11,2.3,2.3,0,0,1,1.83,0A2.29,2.29,0,0,1,389.53,403.27Z"/><path class="cls-9" d="M400.81,402.27a2.93,2.93,0,1,1-4.09-2.69,2.8,2.8,0,0,1,1.16-.24,2.88,2.88,0,0,1,1.17.24A2.93,2.93,0,0,1,400.81,402.27Z"/><path class="cls-9" d="M400.81,409.84a2.3,2.3,0,1,1-3.22-2.12,2.31,2.31,0,0,1,3.22,2.12Z"/><path class="cls-6" d="M420,371.91a12.75,12.75,0,0,1-5.81-24.1v-3.58a30.83,30.83,0,0,1-12.7-5.8l-.89.9a9.2,9.2,0,1,1-8.79-6.47,8.86,8.86,0,0,1,2.71.41l1-1a30.84,30.84,0,0,1-5.6-12.86h-.37a12.74,12.74,0,1,1-.21-11.64H390a30.73,30.73,0,0,1,5.71-12.7l-1.27-1.37a9.53,9.53,0,0,1-3,.5,9.21,9.21,0,1,1,8.87-6.79l1.47,1.59a30.87,30.87,0,0,1,12.47-5.62v-3.58a12.75,12.75,0,1,1,11.63,0v3.43a30.61,30.61,0,0,1,13,5.63l4.41-4.41a9.21,9.21,0,1,1,8.8,6.47,8.92,8.92,0,0,1-2.72-.41L445,294.91A30.68,30.68,0,0,1,450.88,308h3.53a12.75,12.75,0,1,1,0,11.63H450.9A30.8,30.8,0,0,1,445,332.7l4.36,4.38a9.44,9.44,0,0,1,2.7-.4,9.2,9.2,0,1,1-8.81,6.46l-4.37-4.41a30.82,30.82,0,0,1-13.08,5.65v3.43a12.75,12.75,0,0,1-5.82,24.1Z"/><path class="cls-4" d="M420,257A11.5,11.5,0,0,1,424.58,279v5.29a29.36,29.36,0,0,1,14.4,6.22l5.75-5.75a7.95,7.95,0,1,1,4.31,4.3l-5.71,5.72a29.5,29.5,0,0,1,6.5,14.39l5.37,0a11.49,11.49,0,1,1,0,9.12h-5.33a29.41,29.41,0,0,1-6.48,14.45l5.7,5.74a7.94,7.94,0,1,1-4.33,4.29L439,337.07a29.49,29.49,0,0,1-14.43,6.24v5.29a11.51,11.51,0,1,1-9.13,0v-5.41a29.4,29.4,0,0,1-14.05-6.45L399.17,339a8,8,0,1,1-13-2.57,7.9,7.9,0,0,1,5.62-2.33,8,8,0,0,1,3,.6l2.27-2.32a29.46,29.46,0,0,1-6.19-14.19h-2.23a11.5,11.5,0,1,1-.18-9.14H391a29.48,29.48,0,0,1,6.3-14l-2.58-2.78a8,8,0,1,1-3.33-15.17,7.95,7.95,0,0,1,7.46,10.68l2.75,3a29.56,29.56,0,0,1,13.85-6.27V279A11.5,11.5,0,0,1,420,257m0-2.5A14,14,0,0,0,413,280.57v1.84a32.06,32.06,0,0,0-11.06,4.95l-.27-.29a10.44,10.44,0,1,0-10.23,8.41,10.92,10.92,0,0,0,2.61-.33l0,0a32.1,32.1,0,0,0-4.81,10.19,14,14,0,1,0,0,16.88,32,32,0,0,0,4.32,9.49,11.14,11.14,0,0,0-1.74-.14,10.45,10.45,0,1,0,10.33,8.84,32.14,32.14,0,0,0,10.8,4.79v1.83a14,14,0,1,0,14.13,0v-1.66a32.06,32.06,0,0,0,11.69-5l3.12,3.14a10.45,10.45,0,1,0,20.63,2.36,10.46,10.46,0,0,0-10.43-10.44,10.58,10.58,0,0,0-2.32.26l-3.09-3.11a32,32,0,0,0,5.24-11.73h1.72a14,14,0,1,0,0-14.13H451.9A31.93,31.93,0,0,0,446.65,295l3.09-3.09a10.76,10.76,0,0,0,2.34.26,10.45,10.45,0,1,0-10.19-8.1l-3.15,3.15a31.79,31.79,0,0,0-11.66-5v-1.66A14,14,0,0,0,420,254.48Z"/><circle class="cls-8" cx="420.4" cy="313.82" r="29.79"/><path class="cls-9" d="M431.51,268.48A11.5,11.5,0,0,1,424.58,279a11.55,11.55,0,0,1-9.13,0,11.5,11.5,0,1,1,16.06-10.56Z"/><path class="cls-9" d="M431.51,359.16a11.51,11.51,0,1,1-6.93-10.55A11.49,11.49,0,0,1,431.51,359.16Z"/><path class="cls-9" d="M389.56,313.82a11.35,11.35,0,0,1-.86,4.37,11.51,11.51,0,1,1-.18-9.14A11.35,11.35,0,0,1,389.56,313.82Z"/><path class="cls-9" d="M477.24,313.82a11.5,11.5,0,1,1-11.5-11.5A11.5,11.5,0,0,1,477.24,313.82Z"/><path class="cls-9" d="M457.69,351.5a8,8,0,0,1-13-8.69,8.14,8.14,0,0,1,1.72-2.55,7.81,7.81,0,0,1,2.61-1.74,8,8,0,0,1,8.63,13Z"/><path class="cls-9" d="M397.44,347.67a7.95,7.95,0,1,1-2.58-13,7.78,7.78,0,0,1,2.58,1.72,8,8,0,0,1,1.73,2.59A7.92,7.92,0,0,1,397.44,347.67Z"/><path class="cls-9" d="M398.85,287.75a7.69,7.69,0,0,1-1.84,2.9,8,8,0,0,1-11.24,0,7.95,7.95,0,1,1,13.08-2.9Z"/><path class="cls-8" d="M455.18,318.36l-26.2-.07,20.08,20.23a7.81,7.81,0,0,0-2.61,1.74,8.14,8.14,0,0,0-1.72,2.55l-20.15-20.29v26.09a11.44,11.44,0,0,0-9.13,0V322.69L399.17,339a8,8,0,0,0-1.73-2.59,7.78,7.78,0,0,0-2.58-1.72l16.42-16.46-22.58-.06a11.49,11.49,0,0,0-.18-9.14l22.75.06-16.55-16.87a7.86,7.86,0,0,0,2.29-1.59,7.69,7.69,0,0,0,1.84-2.9l16.6,16.91V279a11.55,11.55,0,0,0,9.13,0v25.9l20.14-20.14a8,8,0,0,0,4.31,4.31l-20,20,26.21.07a11.55,11.55,0,0,0-1,4.6A11.41,11.41,0,0,0,455.18,318.36Z"/><path class="cls-9" d="M457.69,287.38a7.95,7.95,0,1,1,0-11.24A8,8,0,0,1,457.69,287.38Z"/><path class="cls-10" d="M398.08,302.85,411,312.49s-3.24,6.95-11.26.83C394.42,309.25,398.08,302.85,398.08,302.85Z"/><path class="cls-10" d="M429.33,302.85l-12.95,9.64s3.24,6.95,11.26.83C433,309.25,429.33,302.85,429.33,302.85Z"/><path class="cls-11" d="M420.08,320.05a11.91,11.91,0,0,0-13.33-.79,1.93,1.93,0,0,0-.45,2.67,2,2,0,0,0,2.67.46l.23-.14.05,0,.6-.26.7-.25.32-.09.13,0,.17,0,.32-.05c.22,0,.44-.06.66-.08s.43,0,.65,0h.4a11.27,11.27,0,0,1,1.3.17l.64.16.24.06.08,0a10.34,10.34,0,0,1,1.27.58l.28.16.16.1.12.08.33.25a1.91,1.91,0,1,0,2.46-2.93Z"/><circle class="cls-9" cx="435.76" cy="323.83" r="6.92"/><circle class="cls-9" cx="436.77" cy="310.31" r="2.78"/><circle class="cls-9" cx="443.09" cy="313.34" r="2.5"/><circle class="cls-9" cx="405.72" cy="296.53" r="3.56"/><circle class="cls-9" cx="413.22" cy="291.44" r="2.19"/><circle class="cls-9" cx="415.58" cy="301.14" r="2.36"/><circle class="cls-8" cx="349.62" cy="279.98" r="14.69"/><circle class="cls-8" cx="339.56" cy="309.35" r="8.73"/><circle class="cls-9" cx="316.89" cy="296.53" r="7.61"/><circle class="cls-9" cx="373.88" cy="264.69" r="5.56"/><path class="cls-6" d="M328.66,404.65a9.37,9.37,0,0,1-4.48-17.6v-2a22.16,22.16,0,0,1-8.56-3.91l-.25.25a6.87,6.87,0,1,1-4.82-4.8l.3-.3a22.14,22.14,0,0,1-3.71-8.32,9.37,9.37,0,1,1,0-9.39,22.24,22.24,0,0,1,3.84-8.51l-.53-.57a6.87,6.87,0,1,1,4.66-5l.68.73a22.11,22.11,0,0,1,8.39-3.77v-2a9.38,9.38,0,1,1,8.95,0v1.9a22,22,0,0,1,8.81,3.79l2.74-2.74a6.87,6.87,0,1,1,6.62,5.05,6.92,6.92,0,0,1-1.81-.24l-2.7,2.7a22.11,22.11,0,0,1,4,8.82h2a9.36,9.36,0,1,1,0,8.94h-1.93a22.08,22.08,0,0,1-4,8.85l2.7,2.72a6.74,6.74,0,0,1,1.8-.24,6.87,6.87,0,1,1-4.87,11.72,6.88,6.88,0,0,1-1.77-6.69L342,381.34a22.12,22.12,0,0,1-8.83,3.81v1.9a9.37,9.37,0,0,1-4.47,17.6Z"/><path class="cls-4" d="M328.66,323.12a8.12,8.12,0,0,1,3.22,15.58v3.74a20.66,20.66,0,0,1,10.17,4.39l4.06-4.06a5.62,5.62,0,1,1,5.19,3.46,5.72,5.72,0,0,1-2.15-.42l-4,4A20.78,20.78,0,0,1,349.71,360h3.79a8.13,8.13,0,1,1,0,6.44h-3.77a20.77,20.77,0,0,1-4.58,10.2l4,4a5.63,5.63,0,0,1,2.14-.42,5.54,5.54,0,0,1,3.95,1.65,5.61,5.61,0,1,1-9.15,1.8l-4-4.06a20.81,20.81,0,0,1-10.19,4.41v3.74a8.13,8.13,0,1,1-6.45,0V384a20.72,20.72,0,0,1-9.92-4.55l-1.57,1.6a5.65,5.65,0,0,1-1.22,6.12,5.61,5.61,0,1,1-4-9.58,5.5,5.5,0,0,1,2.15.43l1.61-1.64a20.76,20.76,0,0,1-4.38-10h-1.57a8.12,8.12,0,1,1-.13-6.46h1.75a20.77,20.77,0,0,1,4.45-9.91l-1.82-2a5.7,5.7,0,0,1-2.36.51,5.61,5.61,0,1,1,5.27-3.68l1.94,2.09a20.85,20.85,0,0,1,9.78-4.43V338.7a8.12,8.12,0,0,1,3.23-15.58m0-2.5a10.62,10.62,0,0,0-5.73,19.57v.31a23.66,23.66,0,0,0-6.39,2.75,8.12,8.12,0,1,0-8.1,7.79h.38a23.66,23.66,0,0,0-2.22,4.79,10.62,10.62,0,1,0,0,14.89,23.37,23.37,0,0,0,2,4.38,8,8,0,0,0-5.58,2.38,8.11,8.11,0,1,0,13.85,6,23.48,23.48,0,0,0,6.07,2.55v.32a10.62,10.62,0,1,0,11.45,0v-.17a23.48,23.48,0,0,0,7.43-3.2l1.49,1.5a8.12,8.12,0,0,0,8,9.56,8.12,8.12,0,1,0-1.38-16.11l-1.47-1.48a23.47,23.47,0,0,0,3.33-7.47H352a10.61,10.61,0,1,0,0-11.45h-.26a23.53,23.53,0,0,0-3.34-7.44l1.47-1.46a8.3,8.3,0,0,0,1.41.12,8.11,8.11,0,1,0-8-6.69l-1.52,1.51a23.45,23.45,0,0,0-7.41-3.19v-.17a10.62,10.62,0,0,0-5.72-19.57Z"/><circle class="cls-8" cx="328.93" cy="363.26" r="21.04"/><path class="cls-9" d="M336.78,331.25a8.12,8.12,0,1,1-8.12-8.12A8.13,8.13,0,0,1,336.78,331.25Z"/><path class="cls-9" d="M336.78,395.28a8.13,8.13,0,1,1-4.9-7.45A8.12,8.12,0,0,1,336.78,395.28Z"/><path class="cls-9" d="M307.15,363.26a7.87,7.87,0,0,1-.61,3.08,8.11,8.11,0,1,1,.61-3.08Z"/><path class="cls-9" d="M369.07,363.26a8.12,8.12,0,0,1-15.58,3.21,8.1,8.1,0,0,1,0-6.45,8.12,8.12,0,0,1,15.56,3.24Z"/><path class="cls-9" d="M355.26,389.87a5.61,5.61,0,0,1-9.15-6.13,5.67,5.67,0,0,1,1.22-1.81,5.62,5.62,0,0,1,7.93,0A5.62,5.62,0,0,1,355.26,389.87Z"/><path class="cls-9" d="M312.71,387.17a5.61,5.61,0,1,1-1.82-9.15,5.32,5.32,0,0,1,1.82,1.21,5.59,5.59,0,0,1,0,7.94Z"/><path class="cls-9" d="M313.71,344.85a5.41,5.41,0,0,1-1.3,2,5.35,5.35,0,0,1-1.62,1.12,5.61,5.61,0,1,1,2.92-3.17Z"/><path class="cls-8" d="M353.49,366.47l-18.5-.05,14.18,14.29a5.53,5.53,0,0,0-1.84,1.22,5.67,5.67,0,0,0-1.22,1.81L331.88,369.4v18.43a8.1,8.1,0,0,0-6.45,0v-18.3l-11.49,11.53a5.67,5.67,0,0,0-1.23-1.83,5.32,5.32,0,0,0-1.82-1.21l11.6-11.63-15.95-.05a7.87,7.87,0,0,0,.61-3.08,8.09,8.09,0,0,0-.73-3.37l16.06.05L310.79,348a5.35,5.35,0,0,0,1.62-1.12,5.41,5.41,0,0,0,1.3-2l11.72,11.94V338.7a8.1,8.1,0,0,0,6.45,0V357l14.23-14.22a5.45,5.45,0,0,0,1.22,1.82,5.6,5.6,0,0,0,1.82,1.22L335,360l18.52,0a8.1,8.1,0,0,0,0,6.45Z"/><path class="cls-9" d="M355.26,344.59a5.59,5.59,0,0,1-7.93,0,5.45,5.45,0,0,1-1.22-1.82,5.61,5.61,0,1,1,9.15,1.82Z"/><path class="cls-10" d="M313.16,355.52l9.15,6.8s-2.29,4.91-7.95.59C310.58,360,313.16,355.52,313.16,355.52Z"/><path class="cls-10" d="M335.23,355.52l-9.14,6.8s2.29,4.91,8,.59C337.81,360,335.23,355.52,335.23,355.52Z"/><circle class="cls-9" cx="339.78" cy="370.33" r="4.88"/><circle class="cls-9" cx="340.49" cy="360.79" r="1.96"/><circle class="cls-9" cx="344.95" cy="362.92" r="1.77"/><circle class="cls-9" cx="318.56" cy="351.06" r="2.52"/><circle class="cls-9" cx="323.86" cy="347.46" r="1.55"/><circle class="cls-9" cx="325.53" cy="354.31" r="1.67"/><ellipse class="cls-11" cx="323.64" cy="371.76" rx="3.78" ry="4.4"/><text class="cls-12" transform="translate(508.67 297.18)">Pneumonia</text></g></g></svg>